<svg width="192" height="256" viewBox="0 0 192 256" fill="none" xmlns="http://www.w3.org/2000/svg">
<mask id="path-1-inside-1_30_113" fill="white">
<rect width="192" height="192" rx="3.48438"/>
</mask>
<rect width="192" height="192" rx="3.48438" stroke="#D9D9D9" stroke-width="27.875" mask="url(#path-1-inside-1_30_113)"/>
<mask id="path-2-inside-2_30_113" fill="white">
<rect x="21" y="21" width="150" height="150" rx="3.48438"/>
</mask>
<rect x="21" y="21" width="150" height="150" rx="3.48438" stroke="#D9D9D9" stroke-width="27.875" mask="url(#path-2-inside-2_30_113)"/>
<rect x="21" y="21" width="75" height="150" rx="3.48438" fill="#D9D9D9"/>
<rect x="96" y="33" width="63" height="126" fill="#D9D9D9"/>
<rect x="33" y="33" width="63" height="63" rx="3.48438" fill="#1E1E1E"/>
<rect x="96" y="96" width="63" height="63" rx="3.48438" fill="#1E1E1E"/>
<path d="M27.3763 223.28H42.3523C42.4163 223.632 42.4643 224.176 42.4963 224.912C42.5603 225.648 42.5923 226.4 42.5923 227.168C42.6243 227.904 42.6403 228.464 42.6403 228.848C42.6403 231.44 42.1923 233.632 41.2963 235.424C40.4323 237.216 39.2803 238.656 37.8403 239.744C36.4003 240.8 34.8003 241.568 33.0403 242.048C31.3123 242.528 29.5843 242.768 27.8563 242.768C25.1043 242.768 22.6403 242.32 20.4643 241.424C18.3203 240.528 16.4963 239.264 14.9923 237.632C13.4883 236 12.3523 234.112 11.5843 231.968C10.8163 229.792 10.4323 227.424 10.4323 224.864C10.4323 221.28 11.1683 218.08 12.6403 215.264C14.1443 212.416 16.2883 210.176 19.0723 208.544C21.8563 206.912 25.1683 206.096 29.0083 206.096C30.0643 206.096 31.2323 206.224 32.5123 206.48C33.7923 206.704 35.0723 207.104 36.3523 207.68C37.6643 208.256 38.8483 209.024 39.9043 209.984L35.8243 216.512C34.8643 215.648 33.7283 215.008 32.4163 214.592C31.1363 214.144 29.8403 213.92 28.5283 213.92C26.4803 213.92 24.6883 214.352 23.1523 215.216C21.6483 216.08 20.4643 217.312 19.6003 218.912C18.7363 220.48 18.3043 222.352 18.3043 224.528C18.3043 226.768 18.7043 228.704 19.5043 230.336C20.3363 231.936 21.4883 233.168 22.9603 234.032C24.4323 234.864 26.1443 235.28 28.0963 235.28C29.1843 235.28 30.2083 235.104 31.1683 234.752C32.1283 234.4 32.9123 233.904 33.5203 233.264C34.1283 232.624 34.4323 231.872 34.4323 231.008V228.896L36.1123 230.672H27.3763V223.28ZM57.5169 206.624H65.9649L54.1089 242H44.9409L57.5169 206.624ZM57.5169 227.264H69.4209L72.6369 235.04H54.1089L57.5169 227.264ZM60.6369 206.624H69.6129L81.6609 242.048H72.6369L60.6369 206.624ZM115.411 242H104.851L91.6033 224.432V222.704L105.187 206.624H115.411L101.059 223.808L101.107 222.464L115.411 242ZM85.0753 206.576H93.0433V242H85.0753V206.576ZM138.849 228.608V206.624H146.769V228.752C146.769 233.424 145.489 236.976 142.929 239.408C140.369 241.84 136.945 243.056 132.657 243.056C129.809 243.056 127.313 242.528 125.169 241.472C123.057 240.384 121.409 238.784 120.225 236.672C119.073 234.528 118.497 231.888 118.497 228.752V206.624H126.465V227.696C126.465 229.488 126.769 230.944 127.377 232.064C127.985 233.152 128.785 233.952 129.777 234.464C130.769 234.976 131.825 235.232 132.945 235.232C134.001 235.232 134.977 234.992 135.873 234.512C136.769 234 137.489 233.248 138.033 232.256C138.577 231.264 138.849 230.048 138.849 228.608ZM172.88 228.608V206.624H180.8V228.752C180.8 233.424 179.52 236.976 176.96 239.408C174.4 241.84 170.976 243.056 166.688 243.056C163.84 243.056 161.344 242.528 159.2 241.472C157.088 240.384 155.44 238.784 154.256 236.672C153.104 234.528 152.528 231.888 152.528 228.752V206.624H160.496V227.696C160.496 229.488 160.8 230.944 161.408 232.064C162.016 233.152 162.816 233.952 163.808 234.464C164.8 234.976 165.856 235.232 166.976 235.232C168.032 235.232 169.008 234.992 169.904 234.512C170.8 234 171.52 233.248 172.064 232.256C172.608 231.264 172.88 230.048 172.88 228.608Z" fill="#D9D9D9"/>
</svg>
